<?xml version="1.0" encoding="UTF-8" standalone="no"?><!DOCTYPE svg PUBLIC "-//W3C//DTD SVG 1.1//EN" "http://www.w3.org/Graphics/SVG/1.1/DTD/svg11.dtd"><svg width="100%" height="100%" viewBox="0 0 26 26" version="1.1" xmlns="http://www.w3.org/2000/svg" xmlns:xlink="http://www.w3.org/1999/xlink" xml:space="preserve" xmlns:serif="http://www.serif.com/" style="fill-rule:evenodd;clip-rule:evenodd;stroke-linejoin:round;stroke-miterlimit:2;"><path d="M1.947,2.145c1.276,-1.368 3.1,-2.145 5.281,-2.145l11.542,0c2.186,0 4.012,0.776 5.287,2.146c1.27,1.364 1.943,3.26 1.943,5.416l0,10.876c0,2.156 -0.673,4.052 -1.943,5.416c-1.277,1.37 -3.101,2.146 -5.288,2.146l-11.539,0c-2.187,0 -4.012,-0.776 -5.286,-2.146c-1.271,-1.364 -1.944,-3.26 -1.944,-5.416l0,-10.876c0,-2.157 0.676,-4.052 1.947,-5.417m15.367,6.875c0.135,-0.178 0.209,-0.396 0.209,-0.621c0,-0.563 -0.463,-1.026 -1.026,-1.026c-0.321,0 -0.624,0.15 -0.818,0.406l-6.993,9.204c-0.136,0.179 -0.209,0.397 -0.209,0.621c0,0.563 0.463,1.027 1.027,1.027c0.321,0 0.624,-0.15 0.817,-0.406l6.993,-9.205Z" style="fill:#cef739;"/></svg>