<svg width="139" height="26" viewBox="0 0 139 26" fill="none" xmlns="http://www.w3.org/2000/svg">
<g clip-path="url(#clip0_388_7831)">
<path fill-rule="evenodd" clip-rule="evenodd" d="M2.61908 2.132C3.88708 0.772 5.70008 0 7.86808 0H19.3391C21.5121 0 23.3271 0.771 24.5941 2.133C25.8561 3.489 26.5251 5.373 26.5251 7.516V18.326C26.5251 20.469 25.8561 22.353 24.5941 23.709C23.3251 25.071 21.5121 25.842 19.3381 25.842H7.87008C5.69608 25.842 3.88208 25.071 2.61608 23.709C1.35308 22.353 0.684082 20.469 0.684082 18.326V7.516C0.684082 5.372 1.35608 3.489 2.61908 2.132ZM17.8921 8.965C18.0271 8.788 18.1001 8.571 18.1001 8.348C18.1001 7.788 17.6401 7.328 17.0801 7.328C16.7611 7.328 16.4601 7.477 16.2681 7.731L9.31808 16.879C9.18308 17.056 9.11008 17.273 9.11008 17.496C9.11008 18.056 9.57108 18.516 10.1301 18.516C10.4491 18.516 10.7501 18.367 10.9421 18.113L17.8921 8.964V8.965Z" fill="#CEF739"/>
<path d="M35.748 18.884V7.27497H42.968V9.11997H37.704V12.221H42.554V14.066H37.736V18.884H35.748ZM45.45 18.884L48.662 12.937L45.641 7.27597H47.867L49.33 10.186C49.435 10.398 49.531 10.605 49.616 10.806C49.701 10.997 49.764 11.145 49.807 11.251C49.838 11.145 49.896 10.996 49.982 10.806C50.066 10.605 50.162 10.398 50.268 10.186L51.747 7.27597H53.91L50.889 12.889L54.101 18.884H51.875L50.237 15.672C50.134 15.466 50.033 15.26 49.935 15.052C49.85 14.851 49.786 14.692 49.744 14.575C49.605 14.949 49.446 15.315 49.267 15.672L47.613 18.884H45.45ZM56.488 21.078V19.281H64.121V21.078H56.488ZM70.896 19.043C70.155 19.043 69.502 18.905 68.94 18.63C68.407 18.361 67.961 17.948 67.652 17.437C67.355 16.917 67.207 16.308 67.207 15.608V10.551C67.207 9.84097 67.355 9.23097 67.652 8.72197C67.96 8.21297 68.39 7.82097 68.94 7.54497C69.502 7.25897 70.155 7.11597 70.896 7.11597C71.649 7.11597 72.295 7.25897 72.836 7.54497C73.387 7.82097 73.817 8.21297 74.124 8.72197C74.431 9.23097 74.585 9.83997 74.585 10.551H72.581C72.581 9.99997 72.433 9.58097 72.136 9.29497C71.85 9.00897 71.436 8.86597 70.896 8.86597C70.355 8.86597 69.937 9.00897 69.64 9.29497C69.343 9.58097 69.195 9.99497 69.195 10.535V15.608C69.195 16.149 69.343 16.567 69.64 16.864C69.937 17.15 70.356 17.293 70.896 17.293C71.437 17.293 71.85 17.15 72.136 16.864C72.433 16.567 72.581 16.148 72.581 15.608H74.585C74.585 16.297 74.431 16.901 74.124 17.421C73.819 17.938 73.372 18.358 72.836 18.63C72.295 18.906 71.649 19.043 70.896 19.043ZM77.815 18.884V7.27497H79.803V11.934H82.92V7.27497H84.908V18.884H82.92V13.779H79.803V18.884H77.815ZM88.519 18.884V7.27497H95.484V9.00797H90.475V12.029H94.928V13.746H90.475V17.149H95.484V18.882H88.519V18.884ZM102.483 19.043C101.741 19.043 101.089 18.905 100.527 18.63C99.994 18.361 99.547 17.948 99.238 17.437C98.942 16.917 98.793 16.308 98.793 15.608V10.551C98.793 9.84097 98.941 9.23097 99.238 8.72197C99.546 8.21297 99.976 7.82097 100.527 7.54497C101.088 7.25897 101.74 7.11597 102.483 7.11597C103.236 7.11597 103.882 7.25897 104.423 7.54497C104.974 7.82097 105.403 8.21297 105.711 8.72197C106.018 9.23097 106.172 9.83997 106.172 10.551H104.168C104.168 9.99997 104.02 9.58097 103.723 9.29497C103.437 9.00897 103.023 8.86597 102.483 8.86597C101.942 8.86597 101.524 9.00897 101.227 9.29497C100.93 9.58097 100.782 9.99497 100.782 10.535V15.608C100.782 16.149 100.93 16.567 101.227 16.864C101.524 17.15 101.943 17.293 102.483 17.293C103.024 17.293 103.437 17.15 103.723 16.864C104.019 16.567 104.168 16.148 104.168 15.608H106.172C106.172 16.297 106.018 16.901 105.711 17.421C105.403 17.941 104.973 18.343 104.423 18.63C103.882 18.906 103.236 19.043 102.483 19.043ZM109.386 18.884V7.27497H111.374V11.966H112.757L114.936 7.27497H117.099L114.507 12.841L117.226 18.884H115.016L112.726 13.779H111.374V18.884H109.386ZM120.106 18.884V7.27497H127.071V9.00797H122.062V12.029H126.515V13.746H122.062V17.149H127.071V18.882H120.106V18.884ZM130.444 18.884V7.27497H134.117C134.89 7.27497 135.558 7.41797 136.121 7.70397C136.672 7.97097 137.136 8.38997 137.457 8.91297C137.775 9.42197 137.934 10.026 137.934 10.726C137.934 11.489 137.738 12.162 137.346 12.746C136.977 13.319 136.429 13.755 135.788 13.986L138.094 18.884H135.868L133.848 14.272H132.433V18.884H130.445H130.444ZM132.432 12.523H134.118C134.68 12.523 135.12 12.369 135.438 12.062C135.756 11.754 135.915 11.33 135.915 10.79C135.915 10.238 135.756 9.80897 135.438 9.50197C135.12 9.18397 134.68 9.02497 134.118 9.02497H132.432V12.524V12.523Z" fill="#0A0A0A"/>
</g>
<defs>
<clipPath id="clip0_388_7831">
<rect width="139" height="26" fill="white"/>
</clipPath>
</defs>
</svg>
